<?xml version="1.0"?>
<svg xmlns="http://www.w3.org/2000/svg" xmlns:xlink="http://www.w3.org/1999/xlink" xmlns:svgjs="http://svgjs.com/svgjs" version="1.1" width="512" height="512" x="0" y="0" viewBox="0 0 512.002 512" style="enable-background:new 0 0 512 512" xml:space="preserve" class=""><g transform="matrix(1,0,0,1,0,100)"><path xmlns="http://www.w3.org/2000/svg" d="m481.9375 173.574219v-121.933594c0-28.476563-23.164062-51.63671875-51.636719-51.63671875h-258.210937c-4.144532 0-7.5 3.35546875-7.5 7.49999975 0 4.140625 3.355468 7.5 7.5 7.5h258.210937c20.203125 0 36.636719 16.433594 36.636719 36.636719v121.863281h-6.445312c1.394531-3.3125 2.152343-6.90625 2.152343-10.597656 0-12.410156-8.316406-22.902344-19.664062-26.226562 6.859375-8.617188 10.59375-19.214844 10.59375-30.390626 0-13.0625-5.085938-25.347656-14.328125-34.585937-19.066406-19.070313-50.101563-19.070313-69.171875 0-9.238281 9.238281-14.328125 21.519531-14.328125 34.585937 0 .769532.023437 1.535157.058594 2.296876-7.164063-1.734376-14.621094-2.339844-22.015626-1.746094l-17.941406 1.433594c-1.261718-7.222657-7.980468-12.292969-15.347656-11.394532l-33.757812 4.125c-6.476563.789063-11.359376 5.945313-12.09375 12.15625l-13.703126 1.097656c-4.707031.375-9.074218 2.671876-12.078124 6.304688l-38.105469-31.074219c-17.835938-14.542969-43.820313-12.488281-59.15625 4.675781l-43.359375 48.542969c-.191406.214844-.363282.4375-.527344.664063h-42.65625v-91.734375c0-20.199219 16.433594-36.636719 36.636719-36.636719h56.210937c4.144532 0 7.5-3.355469 7.5-7.5 0-4.140625-3.355468-7.5-7.5-7.5h-56.210937c-28.472657 0-51.636719 23.164062-51.636719 51.636719v96.277343c-7.203125 4.828126-11.953125 13.042969-11.953125 22.347657 0 2.066406.25 4.128906.71875 6.132812-11.09375 5.070313-18.828125 16.261719-18.828125 29.234375v13.304688c0 17.714844 14.410156 32.125 32.128906 32.125h4.574219v12.421875c0 13.132812 10.6875 23.820312 23.820313 23.820312 13.132812 0 23.820312-10.6875 23.820312-23.820312v-12.421875h76.566406c4.144532 0 7.5-3.355469 7.5-7.5 0-4.140625-3.355468-7.5-7.5-7.5h-128.78125c-9.445312 0-17.128906-7.683594-17.128906-17.125v-13.304688c0-9.445312 7.683594-17.125 17.128906-17.125h274.042969l-17.214844 47.554688h-93.867187c-4.144532 0-7.5 3.359375-7.5 7.5 0 4.144531 3.355468 7.5 7.5 7.5h88.4375l-3.742188 10.335937c-.96875 2.671875-1.417968 5.507813-1.335937 8.328125-1.441407 1.425782-2.71875 3.035156-3.757813 4.839844l-10.15625 17.605469c-2.929687 5.082031-3.082031 11.234375-.402344 16.453125 2.675782 5.222656 7.761719 8.6875 13.601563 9.273437l12.0625 1.203125c.570313.058594 1.140625.085938 1.707031.085938 6.097656 0 11.824219-3.257813 14.914063-8.609375l7.664062-13.289063c2.28125-3.953125 3.230469-8.316406 3-12.566406 2.203125-2.269531 3.921875-4.976562 5.015625-8.003906l9.289063-25.652344h30.527343c4.140626 0 7.5-3.359375 7.5-7.5 0-4.144531-3.359374-7.5-7.5-7.5h-25.097656l17.214844-47.558594h125.84375c9.445312 0 17.128906 7.683594 17.128906 17.125v13.304688c0 9.445312-7.683594 17.128906-17.128906 17.128906h-83.785156c-4.140625 0-7.5 3.355469-7.5 7.5 0 4.140625 3.359375 7.5 7.5 7.5h31.566406v12.417969c0 13.132812 10.6875 23.820312 23.820312 23.820312 13.136719 0 23.820313-10.6875 23.820313-23.820312v-12.417969h4.578125c17.714844 0 32.128906-14.414062 32.128906-32.128906v-13.304688c-.003906-17.019531-13.3125-30.984375-30.066406-32.054687zm-412.59375 89.90625c0 4.863281-3.957031 8.820312-8.820312 8.820312-4.863282 0-8.820313-3.957031-8.820313-8.820312v-12.421875h17.640625zm378.300781-100.574219c0 4.039062-1.984375 7.828125-5.308593 10.140625-.210938.140625-.40625.296875-.59375.457031h-46.464844c-.214844-.195312-.441406-.382812-.683594-.558594-3.238281-2.3125-5.171875-6.066406-5.171875-10.039062 0-3.4375 1.457031-6.722656 3.949219-9.042969 3.710937.875 7.5 1.320313 11.289062 1.320313 7.535156 0 15.0625-1.738282 21.941406-5.1875.894532.375 1.871094.582031 2.898438.582031h5.816406c6.796875 0 12.328125 5.53125 12.328125 12.328125zm-19.003906-80.597656c6.40625 6.40625 9.933594 14.921875 9.933594 23.980468 0 6.601563-1.882813 12.914063-5.378907 18.332032-27.53125-18.730469-33.859374-40.660156-35.226562-51.5625 2.207031-.441406 4.449219-.667969 6.691406-.667969 8.6875 0 17.371094 3.304687 23.980469 9.917969zm-47.960937 0c1.007812-1.003906 2.0625-1.921875 3.15625-2.773438 2.730468 13.917969 11.417968 36.410156 38.421874 55.742188-13.042968 7.917968-30.316406 6.253906-41.574218-5.003906-6.40625-6.40625-9.933594-14.925782-9.933594-23.984376 0-9.054687 3.523438-17.574218 9.929688-23.980468zm-79.460938 29.597656.152344 1.273438c.664062 5.421874-3.210938 10.375-8.636719 11.039062l-11.875 1.449219c-5.421875.652343-10.375-3.214844-11.039063-8.636719l-.15625-1.273438zm-267.644531 61.597656c-.296875-1.046875-.464844-2.125-.464844-3.242187 0-6.558594 5.335937-11.890625 11.890625-11.890625h183.9375l2.453125 15.132812zm121.121093-30.132812 9.703126-10.863282 13.324218 10.863282zm-11.902343-39.214844c9.976562-11.167969 26.882812-12.503906 38.488281-3.039062l44.1875 36.027343c.011719.007813.019531.015625.027344.019531l1.007812 6.207032h-25.414062c-.359375-.480469-.773438-.929688-1.261719-1.328125l-31.207031-25.445313c-3.296875-2.664062-8.085938-2.277344-10.914063.882813l-22.53125 25.226562c-.191406.214844-.363281.4375-.527343.664063h-26.882813zm158.292969 185.632812-7.664063 13.289063c-.433594.75-1.273437 1.191406-2.136719 1.09375l-12.0625-1.203125c-1.042968-.105469-1.542968-.792969-1.746094-1.191406-.207031-.398438-.472656-1.207032.050782-2.113282l10.15625-17.605468c1.03125-1.789063 2.699218-3.070313 4.695312-3.605469.667969-.179687 1.34375-.269531 2.019532-.269531 1.335937 0 2.660156.351562 3.851562 1.039062 3.695312 2.128906 4.96875 6.871094 2.835938 10.566406zm57.238281-135.1875c-3.890625-1.414062-8.191407.601563-9.601563 4.496094l-39.636718 109.488282c-1.023438-.867188-2.136719-1.660157-3.339844-2.355469-3.300782-1.90625-6.949219-2.929688-10.65625-3.039063l39.527344-109.199218c1.410156-3.894532-.601563-8.191407-4.5-9.601563-3.890626-1.414063-8.195313.601563-9.605469 4.5l-8.910157 24.613281h-65.015624l-6.710938-41.398437c-.152344-.941407.246094-1.621094.5-1.945313.253906-.320312.816406-.875 1.769531-.949218l15.765625-1.257813c4.320313 7.722656 12.574219 12.789063 21.730469 12.789063 1 0 14.914063-1.636719 14.914063-1.636719 9.410156-1.148438 16.960937-7.429688 20.191406-15.695313l20.242187-1.617187c8.542969-.6875 16.84375.59375 24.695313 3.753906 2.417968 5.652344 5.914062 10.855469 10.390625 15.332031 2.734375 2.730469 5.714843 5.058594 8.863281 7.007813-2.898438 4.410156-4.515625 9.628906-4.515625 15.019531 0 3.6875.757813 7.28125 2.15625 10.597656h-17.117187l3.363281-9.296875c1.410156-3.898437-.601563-8.199219-4.5-9.605469zm101.972656 108.878907c0 4.863281-3.957031 8.820312-8.820313 8.820312-4.863281 0-8.820312-3.957031-8.820312-8.820312v-12.421875h17.640625zm0 0" fill="#ffffff" data-original="#000000" style="" class=""/></g></svg>
